<?xml version="1.0" standalone="no"?>
<!DOCTYPE svg PUBLIC "-//W3C//DTD SVG 20010904//EN"
 "http://www.w3.org/TR/2001/REC-SVG-20010904/DTD/svg10.dtd">
<svg version="1.0" xmlns="http://www.w3.org/2000/svg"
 width="700.000000pt" height="700.000000pt" viewBox="0 0 700.000000 700.000000"
 preserveAspectRatio="xMidYMid meet">
<metadata>
Created by potrace 1.14, written by Peter Selinger 2001-2017
</metadata>
<g transform="translate(0.000000,700.000000) scale(0.100000,-0.100000)"
fill="#000000" stroke="none">
<path d="M1070 6983 c-189 -33 -404 -125 -553 -237 -244 -184 -396 -412 -480
-724 l-32 -117 -2 -2370 c-2 -2295 -2 -2373 17 -2470 22 -116 39 -179 69 -252
169 -421 523 -709 976 -794 96 -17 193 -18 2460 -16 1298 1 2372 6 2388 10 15
4 37 9 50 11 151 28 325 98 454 183 32 20 60 40 63 43 3 3 27 23 55 45 220
177 378 443 442 745 17 80 18 215 18 2465 0 2286 -1 2383 -19 2465 -87 398
-333 719 -688 897 -69 34 -218 89 -268 98 -14 3 -47 10 -75 17 -39 9 -595 12
-2420 14 -2053 2 -2381 0 -2455 -13z"/>
</g>
</svg>
